<svg width="105" height="101" viewBox="0 0 105 101" fill="none" xmlns="http://www.w3.org/2000/svg">
<path d="M100.192 0.771756C98.6907 0.0627877 97.0068 -0.165223 95.3707 0.118883C93.7346 0.40299 92.2261 1.18535 91.0514 2.35906C90.9809 2.42961 90.9204 2.49512 90.8599 2.56566L82.1625 12.5934C73.2452 7.01396 62.9384 4.05523 52.4195 4.05523C41.9005 4.05523 31.5937 7.01396 22.6764 12.5934L13.9538 2.56566C13.8933 2.49512 13.8328 2.42961 13.7623 2.35906C12.5876 1.18535 11.0791 0.40299 9.44305 0.118883C7.80696 -0.165223 6.12305 0.0627877 4.62143 0.771756C3.21947 1.4602 2.0413 2.53184 1.22348 3.86248C0.405649 5.19313 -0.0183533 6.72829 0.000609297 8.29005V52.4021C0.000609297 77.0935 20.1871 97.5673 46.1383 100.434C46.421 100.466 46.7071 100.437 46.9779 100.35C47.2486 100.263 47.4978 100.119 47.7091 99.9286C47.9205 99.7383 48.0891 99.5053 48.204 99.2451C48.3188 98.9849 48.3773 98.7033 48.3756 98.4189V82.2938L41.6132 75.5264C40.8465 74.7823 40.397 73.7708 40.3585 72.7032C40.32 71.6355 40.6955 70.5943 41.4066 69.7969C41.7763 69.4032 42.2214 69.0877 42.7154 68.8693C43.2094 68.6509 43.7423 68.534 44.2823 68.5255C44.8224 68.5171 45.3586 68.6172 45.8593 68.8201C46.3599 69.0229 46.8146 69.3242 47.1965 69.7062L52.4069 74.9166L57.6172 69.7012C57.9991 69.3192 58.4539 69.0178 58.9545 68.815C59.4551 68.6122 59.9913 68.512 60.5314 68.5205C61.0715 68.5289 61.6043 68.6459 62.0983 68.8643C62.5923 69.0827 63.0374 69.3981 63.4071 69.7919C64.1182 70.5892 64.4937 71.6305 64.4552 72.6981C64.4167 73.7658 63.9672 74.7773 63.2005 75.5213L56.4381 82.2888V98.4138C56.4364 98.6982 56.4949 98.9798 56.6097 99.24C56.7246 99.5003 56.8932 99.7332 57.1046 99.9236C57.3159 100.114 57.5651 100.257 57.8359 100.345C58.1066 100.432 58.3927 100.461 58.6755 100.429C84.6266 97.5622 104.813 77.0935 104.813 52.4021V8.29005C104.832 6.72829 104.408 5.19313 103.59 3.86248C102.772 2.53184 101.594 1.4602 100.192 0.771756ZM30.235 60.4646C29.039 60.4646 27.8699 60.1099 26.8755 59.4455C25.8811 58.7811 25.1061 57.8367 24.6484 56.7317C24.1907 55.6268 24.071 54.411 24.3043 53.238C24.5376 52.065 25.1135 50.9876 25.9592 50.1419C26.8049 49.2962 27.8823 48.7203 29.0553 48.487C30.2283 48.2537 31.4441 48.3734 32.549 48.8311C33.6539 49.2888 34.5983 50.0638 35.2628 51.0582C35.9272 52.0526 36.2819 53.2217 36.2819 54.4177C36.2819 56.0214 35.6448 57.5595 34.5108 58.6935C33.3768 59.8275 31.8387 60.4646 30.235 60.4646ZM40.3131 28.2145C40.3131 29.2837 39.8884 30.3091 39.1324 31.0651C38.3764 31.8211 37.351 32.2458 36.2819 32.2458C35.2127 32.2458 34.1873 31.8211 33.4313 31.0651C32.6753 30.3091 32.2506 29.2837 32.2506 28.2145V18.6403C32.2506 17.5711 32.6753 16.5458 33.4313 15.7898C34.1873 15.0338 35.2127 14.609 36.2819 14.609C37.351 14.609 38.3764 15.0338 39.1324 15.7898C39.8884 16.5458 40.3131 17.5711 40.3131 18.6403V28.2145ZM56.4381 28.2145C56.4381 29.2837 56.0134 30.3091 55.2574 31.0651C54.5014 31.8211 53.476 32.2458 52.4069 32.2458C51.3377 32.2458 50.3123 31.8211 49.5563 31.0651C48.8003 30.3091 48.3756 29.2837 48.3756 28.2145V16.1208C48.3756 15.0516 48.8003 14.0262 49.5563 13.2702C50.3123 12.5142 51.3377 12.0895 52.4069 12.0895C53.476 12.0895 54.5014 12.5142 55.2574 13.2702C56.0134 14.0262 56.4381 15.0516 56.4381 16.1208V28.2145ZM64.5006 28.2145V18.6403C64.5006 17.5711 64.9253 16.5458 65.6813 15.7898C66.4373 15.0338 67.4627 14.609 68.5319 14.609C69.601 14.609 70.6264 15.0338 71.3824 15.7898C72.1384 16.5458 72.5631 17.5711 72.5631 18.6403V28.2145C72.5631 29.2837 72.1384 30.3091 71.3824 31.0651C70.6264 31.8211 69.601 32.2458 68.5319 32.2458C67.4627 32.2458 66.4373 31.8211 65.6813 31.0651C64.9253 30.3091 64.5006 29.2837 64.5006 28.2145ZM74.5787 60.4646C73.3828 60.4646 72.2137 60.1099 71.2193 59.4455C70.2249 58.7811 69.4498 57.8367 68.9921 56.7317C68.5345 55.6268 68.4147 54.411 68.648 53.238C68.8814 52.065 69.4573 50.9876 70.3029 50.1419C71.1486 49.2962 72.2261 48.7203 73.399 48.487C74.572 48.2537 75.7878 48.3734 76.8928 48.8311C77.9977 49.2888 78.9421 50.0638 79.6065 51.0582C80.271 52.0526 80.6256 53.2217 80.6256 54.4177C80.6256 56.0214 79.9885 57.5595 78.8545 58.6935C77.7205 59.8275 76.1825 60.4646 74.5787 60.4646Z" fill="white"/>
</svg>
