<svg width="70" height="67" viewBox="0 0 70 67" fill="none" xmlns="http://www.w3.org/2000/svg">
<path d="M66.0182 0.50852C65.0287 0.0413717 63.9192 -0.108868 62.8411 0.078334C61.7631 0.265535 60.7692 0.781045 59.9951 1.55442C59.9486 1.6009 59.9088 1.64407 59.869 1.69055L54.1381 8.29797C48.2624 4.6216 41.471 2.67205 34.5399 2.67205C27.6089 2.67205 20.8175 4.6216 14.9418 8.29797L9.19435 1.69055C9.1545 1.64407 9.11466 1.6009 9.06818 1.55442C8.29415 0.781045 7.30021 0.265535 6.22216 0.078334C5.14412 -0.108868 4.03457 0.0413717 3.04513 0.50852C2.12135 0.962145 1.34504 1.66826 0.806167 2.54504C0.267288 3.42182 -0.0120932 4.43336 0.000401475 5.46243V34.5284C0.000401475 50.798 13.3016 64.2884 30.4012 66.1777C30.5875 66.1983 30.776 66.1792 30.9544 66.1218C31.1328 66.0643 31.297 65.9698 31.4363 65.8443C31.5755 65.7189 31.6866 65.5654 31.7623 65.3939C31.838 65.2225 31.8765 65.037 31.8754 64.8495V54.2245L27.4195 49.7654C26.9144 49.2751 26.6182 48.6086 26.5928 47.9051C26.5674 47.2016 26.8149 46.5155 27.2834 45.9902C27.527 45.7307 27.8203 45.5228 28.1458 45.3789C28.4713 45.235 28.8224 45.158 29.1783 45.1524C29.5341 45.1468 29.8875 45.2128 30.2173 45.3465C30.5472 45.4801 30.8468 45.6787 31.0984 45.9304L34.5317 49.3636L37.9649 45.9271C38.2165 45.6754 38.5161 45.4768 38.846 45.3432C39.1758 45.2095 39.5292 45.1435 39.885 45.1491C40.2409 45.1547 40.592 45.2317 40.9175 45.3756C41.243 45.5195 41.5363 45.7274 41.7799 45.9868C42.2484 46.5122 42.4959 47.1983 42.4705 47.9018C42.4451 48.6053 42.1489 49.2718 41.6438 49.762L37.1879 54.2212V64.8462C37.1868 65.0336 37.2253 65.2192 37.301 65.3906C37.3767 65.5621 37.4878 65.7156 37.627 65.841C37.7663 65.9665 37.9305 66.061 38.1089 66.1185C38.2873 66.1759 38.4758 66.195 38.6621 66.1743C55.7617 64.2851 69.0629 50.798 69.0629 34.5284V5.46243C69.0754 4.43336 68.796 3.42182 68.2571 2.54504C67.7183 1.66826 66.9419 0.962145 66.0182 0.50852ZM19.9223 39.8409C19.1342 39.8409 18.3639 39.6073 17.7087 39.1695C17.0534 38.7316 16.5428 38.1094 16.2412 37.3813C15.9396 36.6533 15.8607 35.8521 16.0145 35.0793C16.1682 34.3064 16.5477 33.5964 17.1049 33.0392C17.6621 32.482 18.3721 32.1025 19.145 31.9487C19.9179 31.795 20.719 31.8739 21.447 32.1755C22.1751 32.4771 22.7974 32.9877 23.2352 33.643C23.673 34.2982 23.9067 35.0685 23.9067 35.8566C23.9067 36.9133 23.4869 37.9267 22.7397 38.6739C21.9924 39.4212 20.979 39.8409 19.9223 39.8409ZM26.5629 18.5909C26.5629 19.2954 26.283 19.9711 25.7849 20.4692C25.2868 20.9673 24.6111 21.2472 23.9067 21.2472C23.2022 21.2472 22.5265 20.9673 22.0284 20.4692C21.5303 19.9711 21.2504 19.2954 21.2504 18.5909V12.2823C21.2504 11.5779 21.5303 10.9022 22.0284 10.4041C22.5265 9.90595 23.2022 9.6261 23.9067 9.6261C24.6111 9.6261 25.2868 9.90595 25.7849 10.4041C26.283 10.9022 26.5629 11.5779 26.5629 12.2823V18.5909ZM37.1879 18.5909C37.1879 19.2954 36.908 19.9711 36.4099 20.4692C35.9118 20.9673 35.2361 21.2472 34.5317 21.2472C33.8272 21.2472 33.1515 20.9673 32.6534 20.4692C32.1553 19.9711 31.8754 19.2954 31.8754 18.5909V10.6222C31.8754 9.91771 32.1553 9.24208 32.6534 8.74394C33.1515 8.2458 33.8272 7.96594 34.5317 7.96594C35.2361 7.96594 35.9118 8.2458 36.4099 8.74394C36.908 9.24208 37.1879 9.91771 37.1879 10.6222V18.5909ZM42.5004 18.5909V12.2823C42.5004 11.5779 42.7803 10.9022 43.2784 10.4041C43.7765 9.90595 44.4522 9.6261 45.1567 9.6261C45.8611 9.6261 46.5368 9.90595 47.0349 10.4041C47.533 10.9022 47.8129 11.5779 47.8129 12.2823V18.5909C47.8129 19.2954 47.533 19.9711 47.0349 20.4692C46.5368 20.9673 45.8611 21.2472 45.1567 21.2472C44.4522 21.2472 43.7765 20.9673 43.2784 20.4692C42.7803 19.9711 42.5004 19.2954 42.5004 18.5909ZM49.141 39.8409C48.353 39.8409 47.5827 39.6073 46.9274 39.1695C46.2722 38.7316 45.7615 38.1094 45.4599 37.3813C45.1584 36.6533 45.0795 35.8521 45.2332 35.0793C45.3869 34.3064 45.7664 33.5964 46.3237 33.0392C46.8809 32.482 47.5908 32.1025 48.3637 31.9487C49.1366 31.795 49.9377 31.8739 50.6658 32.1755C51.3938 32.4771 52.0161 32.9877 52.4539 33.643C52.8917 34.2982 53.1254 35.0685 53.1254 35.8566C53.1254 36.9133 52.7056 37.9267 51.9584 38.6739C51.2112 39.4212 50.1977 39.8409 49.141 39.8409Z" fill="#F87433"/>
</svg>
